<svg width="1861" height="635" viewBox="0 0 1861 635" fill="none" xmlns="http://www.w3.org/2000/svg">
<path fill-rule="evenodd" clip-rule="evenodd" d="M87.5765 0H1773.42C1821.79 0 1861 39.2137 1861 87.5862V547.414C1861 595.786 1821.79 635 1773.42 635H87.5765C39.2093 635 0 595.786 0 547.414V87.5862C0 39.2137 39.2093 0 87.5765 0ZM883.964 514.569H911.091V449.098H911.726C915.717 456.593 921.732 462.816 929.087 467.059C936.441 471.302 944.839 473.394 953.325 473.097C986.823 473.097 1008.48 446.197 1008.48 404.758C1008.48 363.319 986.626 336.539 952.821 336.539C944.169 336.257 935.615 338.448 928.162 342.853C920.709 347.258 914.666 353.697 910.741 361.414H910.237V338.674H883.964V514.569ZM910.971 404.769C910.971 377.639 924.906 359.41 945.64 359.41H945.651C967.184 359.41 980.561 376.785 980.561 404.769C980.561 432.753 967.173 450.127 945.64 450.127C924.578 450.127 910.971 432.326 910.971 404.769ZM732.49 514.569H759.627V449.109H760.24C764.231 456.604 770.247 462.827 777.601 467.07C784.956 471.313 793.354 473.405 801.839 473.108C835.337 473.108 856.991 446.208 856.991 404.769C856.991 363.329 835.14 336.55 801.336 336.55C792.686 336.269 784.136 338.459 776.685 342.862C769.235 347.266 763.192 353.7 759.266 361.414H758.763V338.674H732.49V514.569ZM759.507 404.769C759.507 377.639 773.443 359.41 794.176 359.41C815.709 359.41 829.097 376.785 829.097 404.769C829.097 432.753 815.709 450.127 794.176 450.127C773.114 450.127 759.507 432.326 759.507 404.769ZM200.649 434.564C213.559 453.012 231.21 478.232 253.983 478.232V478.188H255.143C263.837 477.641 272.338 475.382 280.157 471.542H280.212H280.321H280.376C290.273 466.739 301.122 464.221 312.123 464.174C322.658 464.289 333.035 466.75 342.501 471.378H342.566C350.475 475.363 359.176 477.525 368.029 477.706H369.321C392.233 477.367 406.88 458.251 422.206 435.194C432.727 420.134 440.882 403.552 446.388 386.025V385.938C437.76 382.304 429.877 377.108 423.137 370.61C415.693 363.585 409.784 355.095 405.782 345.673C401.78 336.252 399.773 326.104 399.885 315.869C400.102 302.584 403.653 289.566 410.212 278.012C416.771 266.457 426.127 256.736 437.423 249.741C430.222 239.471 420.731 231.019 409.699 225.052C398.668 219.085 386.399 215.768 373.864 215.364C371.773 215.177 369.901 215.079 368.303 215.079C354.474 215.948 340.927 219.386 328.357 225.217H328.302H328.204H328.094C321.629 228.352 314.69 230.394 307.558 231.26C300.037 230.464 292.717 228.34 285.937 224.987H285.872H285.806H285.696C274.83 219.829 263.077 216.8 251.071 216.064H250.086C235.472 216.524 221.226 220.765 208.74 228.373C196.254 235.981 185.953 246.697 178.842 259.474C164.509 287.639 160.348 319.891 167.063 350.772C172.355 380.668 183.759 409.151 200.561 434.439L200.649 434.564ZM1109.06 459.39C1123.34 469.474 1140.55 474.559 1158.02 473.852L1158.01 473.863C1201.17 473.863 1227.98 452.733 1227.98 418.673C1228.27 412.807 1227.32 406.946 1225.19 401.473C1223.06 396.001 1219.79 391.042 1215.61 386.923C1204.02 377.365 1190.15 370.995 1175.35 368.442L1155.39 363.548C1132 357.757 1122.47 350.192 1122.47 337.415C1122.47 321.43 1137.6 310.274 1159.27 310.274C1181.36 310.274 1196.1 321.387 1197.72 339.287H1225.09C1224.23 307.734 1197.9 286.527 1159.64 286.527C1120.81 286.527 1093.69 308.216 1093.69 339.287C1093.69 364.599 1109.18 380.135 1142.44 388.16L1165.93 393.82C1189.34 399.568 1199.34 408.031 1199.34 422.089C1199.34 438.325 1182.81 450.106 1160.03 450.106C1136.09 450.106 1118.68 438.139 1116.69 420.326H1088.93C1089.18 427.923 1091.11 435.368 1094.59 442.125C1098.08 448.881 1103.02 454.778 1109.06 459.39ZM1572.82 405.382C1572.82 447.303 1596.69 473.349 1635.13 473.349L1635.12 473.36C1648.83 473.683 1662.29 469.608 1673.52 461.733C1678.41 458.242 1682.56 453.821 1685.74 448.722C1688.92 443.623 1691.05 437.947 1692.03 432.019H1666.27C1663.99 438.131 1659.77 443.329 1654.26 446.821C1648.75 450.314 1642.24 451.909 1635.74 451.365C1630.8 451.526 1625.88 450.627 1621.32 448.728C1616.76 446.829 1612.65 443.974 1609.29 440.356C1605.92 436.738 1603.36 432.44 1601.8 427.752C1600.23 423.063 1599.68 418.094 1600.2 413.177V411.546H1693.54V402.24C1694.34 384.805 1688.63 367.697 1677.53 354.231C1671.99 348.286 1665.23 343.605 1657.72 340.506C1650.21 337.408 1642.12 335.965 1634 336.276C1625.63 335.999 1617.31 337.557 1609.6 340.84C1601.9 344.124 1595.01 349.053 1589.41 355.283C1577.95 369.395 1572.05 387.216 1572.82 405.382ZM1610.13 368.436C1616.44 361.992 1625.02 358.293 1634.03 358.14L1633.99 358.162C1638.42 358.143 1642.82 359.035 1646.89 360.782C1650.97 362.529 1654.64 365.095 1657.68 368.32C1660.72 371.545 1663.07 375.361 1664.58 379.531C1666.09 383.7 1666.72 388.136 1666.45 392.561H1600.37C1600.32 383.548 1603.83 374.879 1610.13 368.436ZM1373.67 469.059C1381.52 472.218 1389.94 473.683 1398.39 473.36C1406.84 473.679 1415.26 472.212 1423.1 469.054C1430.94 465.896 1438.03 461.118 1443.9 455.032C1455.78 441.054 1461.91 423.085 1461.06 404.758C1461.91 386.456 1455.75 368.519 1443.85 354.593C1431.62 342.857 1415.33 336.303 1398.38 336.303C1381.43 336.303 1365.13 342.857 1352.9 354.593C1341.01 368.523 1334.86 386.458 1335.71 404.758C1334.85 423.086 1340.98 441.055 1352.87 455.032C1358.74 461.121 1365.83 465.901 1373.67 469.059ZM1363.36 404.867C1363.36 379.391 1379.08 358.666 1398.39 358.666H1398.38C1417.66 358.666 1433.42 379.402 1433.42 404.867C1433.42 430.333 1417.71 451.058 1398.39 451.058C1379.07 451.058 1363.36 430.344 1363.36 404.867ZM1263.98 436.048C1263.98 461.722 1274.45 471.728 1301.2 471.728H1301.19C1306.24 471.825 1311.29 471.414 1316.26 470.502V449.011C1313.31 449.45 1310.33 449.663 1307.34 449.646C1296.22 449.646 1291.26 444.533 1291.26 433.059V360.198H1316.38V338.685H1291.26V307.406H1264V338.674H1244.78V360.198H1263.98V436.048ZM548.36 470.863H577.6L577.633 470.842L594.217 421.837H663.304L679.889 470.842H709.665L644.213 289.56H613.813L548.36 470.863ZM601.366 399.218L628.372 319.69H629.139L656.101 399.218H601.366ZM1515.28 470.831H1515.3L1515.28 470.842V470.831ZM1488.17 470.831H1515.28V391.696C1514.82 387.776 1515.22 383.802 1516.45 380.051C1517.68 376.3 1519.71 372.86 1522.4 369.969C1525.08 367.079 1528.37 364.806 1532.02 363.308C1535.67 361.81 1539.6 361.122 1543.55 361.293C1547.66 361.157 1551.77 361.667 1555.72 362.804V337.557C1552.66 336.929 1549.55 336.592 1546.43 336.55C1539.11 336.395 1531.97 338.756 1526.19 343.238C1520.41 347.72 1516.35 354.052 1514.68 361.173H1514.04V338.674H1488.17V470.831ZM1509.42 204.087C1509.42 225.753 1521.51 239.22 1540.95 239.22V239.231C1547.4 239.754 1553.82 237.947 1559.05 234.138C1564.28 230.33 1567.98 224.771 1569.46 218.473H1558.19C1556.97 221.913 1554.64 224.848 1551.57 226.815C1548.49 228.782 1544.85 229.668 1541.21 229.334C1538.42 229.408 1535.64 228.883 1533.06 227.794C1530.49 226.704 1528.17 225.076 1526.28 223.018C1524.38 220.961 1522.95 218.521 1522.08 215.864C1521.2 213.206 1520.91 210.393 1521.21 207.612V206.955H1570.3V202.576C1570.3 181.566 1558.85 168.428 1540.43 168.428C1536.17 168.298 1531.93 169.114 1528.03 170.818C1524.12 172.522 1520.64 175.071 1517.84 178.282C1512.02 185.59 1509.03 194.752 1509.42 204.087ZM1526.69 184.242C1530.24 180.565 1535.11 178.445 1540.22 178.347L1540.26 178.358C1542.78 178.354 1545.26 178.87 1547.57 179.872C1549.87 180.874 1551.95 182.342 1553.66 184.183C1555.37 186.024 1556.68 188.198 1557.51 190.57C1558.34 192.942 1558.68 195.46 1558.49 197.967H1521.27C1521.19 192.855 1523.14 187.92 1526.69 184.242ZM1092.31 203.813C1092.31 224.987 1104.09 239.22 1121.6 239.22L1121.61 239.231C1126.11 239.323 1130.54 238.182 1134.43 235.931C1138.32 233.68 1141.51 230.406 1143.67 226.465H1143.87V238.048H1154.82V143.083H1143.37V180.701H1143.1C1140.95 176.855 1137.78 173.674 1133.94 171.506C1130.1 169.338 1125.74 168.266 1121.33 168.406C1103.98 168.406 1092.31 182.639 1092.31 203.813ZM1104.09 203.824C1104.09 188.431 1111.75 178.479 1123.79 178.479L1123.78 178.457C1135.55 178.457 1143.5 188.672 1143.5 203.824C1143.5 218.976 1135.57 229.158 1123.79 229.158C1111.65 229.158 1104.09 219.447 1104.09 203.824ZM1035.01 238.347C1037.76 239.239 1040.67 239.54 1043.55 239.231C1048.04 239.26 1052.46 238.07 1056.33 235.787C1060.2 233.504 1063.37 230.214 1065.52 226.268H1065.78V238.048H1076.64V190.73C1076.64 177.176 1066.36 168.417 1050.46 168.417C1044.09 167.598 1037.65 169.343 1032.57 173.269C1027.48 177.194 1024.16 182.979 1023.34 189.35H1034.4C1035.24 185.917 1037.32 182.914 1040.23 180.911C1043.14 178.909 1046.69 178.047 1050.2 178.49C1059.6 178.49 1065.2 183.482 1065.2 191.847V197.584L1045.59 198.678C1029.82 199.609 1020.78 206.901 1020.78 218.692C1020.77 221.586 1021.37 224.45 1022.54 227.098C1023.71 229.745 1025.42 232.115 1027.57 234.053C1029.72 235.992 1032.26 237.455 1035.01 238.347ZM1046.87 207.546L1065.16 206.452V212.046C1065.1 214.459 1064.55 216.834 1063.55 219.029C1062.55 221.224 1061.11 223.194 1059.33 224.821C1057.55 226.448 1055.46 227.698 1053.18 228.496C1050.9 229.294 1048.49 229.624 1046.08 229.465C1037.87 229.465 1032.4 225.151 1032.4 218.67C1032.4 212.189 1037.67 208.138 1046.87 207.546ZM1212.18 228.062C1218.11 234.686 1226.41 238.7 1235.28 239.231C1244.15 238.7 1252.45 234.686 1258.37 228.062C1264.3 221.439 1267.37 212.743 1266.91 203.868C1267.41 199.416 1266.96 194.91 1265.6 190.643C1264.24 186.376 1261.99 182.444 1259 179.106C1256.02 175.767 1252.36 173.096 1248.27 171.267C1244.18 169.439 1239.76 168.493 1235.28 168.493C1230.8 168.493 1226.37 169.439 1222.28 171.267C1218.19 173.096 1214.54 175.767 1211.55 179.106C1208.56 182.444 1206.32 186.376 1204.95 190.643C1203.59 194.91 1203.14 199.416 1203.64 203.868C1203.19 212.743 1206.25 221.439 1212.18 228.062ZM1220.13 187.151C1223.87 182.431 1229.3 179.356 1235.28 178.577V178.566C1241.25 179.348 1246.68 182.426 1250.42 187.148C1254.16 191.871 1255.91 197.865 1255.3 203.857C1256.01 206.878 1256.03 210.021 1255.35 213.051C1254.68 216.08 1253.33 218.918 1251.4 221.351C1249.47 223.784 1247.02 225.75 1244.23 227.102C1241.43 228.453 1238.37 229.155 1235.27 229.155C1232.16 229.155 1229.1 228.453 1226.31 227.102C1223.51 225.75 1221.06 223.784 1219.13 221.351C1217.21 218.918 1215.85 216.08 1215.18 213.051C1214.5 210.021 1214.52 206.878 1215.23 203.857C1214.63 197.864 1216.39 191.871 1220.13 187.151ZM952.855 228.041C958.781 234.664 967.082 238.678 975.952 239.209C984.823 238.678 993.124 234.664 999.049 228.041C1004.97 221.417 1008.04 212.722 1007.59 203.846C1008.09 199.394 1007.64 194.888 1006.28 190.621C1004.91 186.354 1002.67 182.422 999.68 179.084C996.694 175.745 993.037 173.074 988.948 171.245C984.86 169.417 980.431 168.471 975.952 168.471C971.473 168.471 967.045 169.417 962.956 171.245C958.868 173.074 955.211 175.745 952.225 179.084C949.239 182.422 946.991 186.354 945.628 190.621C944.265 194.888 943.818 199.394 944.315 203.846C943.861 212.722 946.93 221.417 952.855 228.041ZM960.807 187.13C964.548 182.41 969.981 179.334 975.952 178.555C981.922 179.337 987.352 182.414 991.09 187.134C994.829 191.853 996.581 197.844 995.974 203.835C996.689 206.857 996.711 210.003 996.038 213.035C995.365 216.067 994.014 218.907 992.088 221.343C990.161 223.779 987.708 225.747 984.913 227.1C982.118 228.453 979.052 229.156 975.947 229.156C972.841 229.156 969.776 228.453 966.981 227.1C964.185 225.747 961.732 223.779 959.806 221.343C957.879 218.907 956.529 216.067 955.856 213.035C955.182 210.003 955.204 206.857 955.919 203.835C955.313 197.843 957.067 191.85 960.807 187.13ZM668.451 228.036C674.377 234.658 682.678 238.67 691.548 239.198C700.417 238.67 708.718 234.658 714.644 228.036C720.57 221.415 723.639 212.72 723.185 203.846C723.682 199.394 723.235 194.888 721.872 190.621C720.509 186.354 718.261 182.422 715.275 179.084C712.289 175.745 708.632 173.074 704.544 171.245C700.455 169.417 696.027 168.471 691.548 168.471C687.069 168.471 682.64 169.417 678.552 171.245C674.463 173.074 670.806 175.745 667.82 179.084C664.834 182.422 662.586 186.354 661.223 190.621C659.86 194.888 659.413 199.394 659.911 203.846C659.456 212.72 662.526 221.415 668.451 228.036ZM676.403 187.13C680.143 182.41 685.576 179.334 691.548 178.555L691.559 178.544C697.528 179.328 702.958 182.408 706.694 187.13C710.43 191.852 712.179 197.844 711.57 203.835C712.176 209.827 710.425 215.819 706.687 220.541C702.949 225.262 697.518 228.342 691.548 229.126C685.575 228.344 680.142 225.266 676.402 220.544C672.661 215.822 670.908 209.828 671.515 203.835C670.909 197.843 672.662 191.85 676.403 187.13ZM1394.24 220.301C1394.24 233.461 1399.13 238.596 1411.68 238.596V238.585C1414.11 238.628 1416.53 238.449 1418.92 238.048V228.447C1418.01 228.578 1415.35 228.775 1414.18 228.775C1408.31 228.775 1405.69 225.972 1405.69 219.699V179.026H1418.98V169.611H1405.69V153.101H1394.24V169.611H1384.05V179.026H1394.24V220.301ZM1436.27 238.07H1447.68L1447.69 238.048V198.164C1447.44 195.628 1447.74 193.067 1448.57 190.656C1449.39 188.244 1450.72 186.036 1452.47 184.182C1454.21 182.327 1456.34 180.868 1458.7 179.903C1461.06 178.938 1463.59 178.49 1466.14 178.588C1468.42 178.407 1470.71 178.744 1472.83 179.572C1474.96 180.399 1476.88 181.698 1478.43 183.37C1479.99 185.041 1481.15 187.043 1481.82 189.226C1482.5 191.409 1482.67 193.715 1482.33 195.974V238.048H1493.78V193.828C1494.13 190.519 1493.76 187.172 1492.7 184.019C1491.63 180.866 1489.89 177.982 1487.6 175.567C1485.31 173.152 1482.53 171.262 1479.43 170.03C1476.34 168.797 1473.02 168.251 1469.7 168.428C1465.29 168.121 1460.89 169.102 1457.04 171.252C1453.18 173.402 1450.03 176.628 1447.98 180.537H1447.72V143.094H1436.27V238.07ZM1282.97 238.07H1294.42L1294.41 238.048V197.792C1294.15 195.321 1294.42 192.823 1295.2 190.465C1295.99 188.107 1297.27 185.945 1298.96 184.123C1300.65 182.302 1302.71 180.863 1305 179.905C1307.29 178.946 1309.76 178.49 1312.25 178.566C1322.49 178.566 1327.97 184.478 1327.97 195.679V238.048H1339.42V193.631C1339.82 190.356 1339.49 187.033 1338.47 183.897C1337.44 180.761 1335.74 177.89 1333.47 175.486C1331.21 173.083 1328.45 171.207 1325.38 169.991C1322.32 168.775 1319.02 168.249 1315.73 168.45C1311.33 168.18 1306.94 169.177 1303.09 171.323C1299.24 173.47 1296.09 176.675 1294.01 180.559H1293.76V169.611H1282.97V238.07ZM840.099 238.07H851.55L851.495 238.048V197.77C851.235 195.3 851.506 192.803 852.291 190.446C853.075 188.09 854.355 185.929 856.045 184.109C857.734 182.289 859.794 180.851 862.085 179.893C864.376 178.935 866.846 178.479 869.328 178.555C879.585 178.555 885.059 184.468 885.059 195.668V238.037H896.553V193.62C896.953 190.345 896.627 187.023 895.599 183.888C894.572 180.753 892.867 177.882 890.607 175.48C888.346 173.077 885.585 171.201 882.519 169.984C879.453 168.767 876.157 168.24 872.864 168.439C868.464 168.162 864.077 169.156 860.226 171.303C856.375 173.45 853.223 176.659 851.145 180.548H850.893V169.6H840.099V238.07ZM752.709 238.07H764.389L764.357 238.048L779.759 185.026H780.011L795.479 238.048H807.127L826.207 169.6H814.888L801.204 225.272H800.942L785.419 169.6H774.362L758.905 225.272H758.642L744.936 169.633H733.552L752.709 238.07ZM569.017 238.07H600.961L600.928 238.037C606.995 238.348 613.06 237.398 618.741 235.246C624.422 233.094 629.595 229.787 633.933 225.534C642.22 215.805 646.449 203.261 645.745 190.5C646.393 177.768 642.134 165.272 633.846 155.586C629.513 151.347 624.352 148.047 618.687 145.894C613.021 143.741 606.971 142.78 600.917 143.072H569.017V238.07ZM580.895 227.374V153.769L600.184 153.747C621.782 153.747 633.671 166.994 633.671 190.664C633.671 214.334 621.782 227.374 600.184 227.374H580.895ZM916.17 238.07H927.731L927.654 237.994V143.083H916.17V238.07ZM304.843 211.324C305.971 211.424 307.104 211.468 308.236 211.455C317.531 210.986 326.622 208.563 334.917 204.345C343.213 200.127 350.526 194.208 356.382 186.975C369.358 171.487 375.735 151.522 374.138 131.379C354.396 133.442 336.157 142.871 323.059 157.787C310.13 172.511 303.577 191.768 304.843 211.324Z" fill="white"/>
</svg>
