<?xml version="1.0" encoding="UTF-8"?>
<svg width="54px" height="54px" viewBox="0 0 54 54" version="1.1" xmlns="http://www.w3.org/2000/svg" xmlns:xlink="http://www.w3.org/1999/xlink">
    <title>graph</title>
    <g id="graph" stroke="none" stroke-width="1" fill="none" fill-rule="evenodd">
        <path d="M43.4,15.1834503 L43.4,13.9346344 C43.4,13.4184967 42.9815033,13 42.4653656,13 L39.6617096,13 C39.2924042,13 38.9579529,13.2172821 38.8079071,13.5544525 C38.6576142,13.8916229 38.7199066,14.2854004 38.9668518,14.559784 L39.8349914,15.5243286 L28.6174012,21.5071259 L24.1224549,17.0121796 C23.851532,16.7412567 23.4424286,16.6631439 23.0906738,16.8151672 L11.5638458,21.7998017 C11.0902252,22.0047241 10.8722016,22.5547272 11.077124,23.0285949 C11.2790802,23.4960358 11.8379822,23.7177674 12.3059174,23.515564 L23.2498657,18.7828186 L27.7853516,23.3185517 C28.076297,23.6094971 28.5232208,23.6759918 28.8860992,23.482193 L41.1233582,16.9558197 L41.770755,17.6751495 C42.0265991,17.959668 42.4426239,18.0597809 42.8003113,17.9225891 C43.1614594,17.7839142 43.4,17.4371033 43.4,17.05 L43.4,15.1898773 C43.4,15.1876526 43.4,15.1854278 43.4,15.1834503 Z" id="Path" fill="#2DD682" fill-rule="nonzero"></path>
        <path d="M18.9756622,23.5793396 L18.9756622,40.103656 L23.2125397,40.103656 L23.2125397,21.7572846 C23.1712586,21.7686554 23.130719,21.7824982 23.0906738,21.7998017 L18.9756622,23.5793396 Z" id="Path" fill="#2DD682" fill-rule="nonzero"></path>
        <polygon id="Path" fill="#2DD682" fill-rule="nonzero" points="31.1877075 40.103656 35.424585 40.103656 35.424585 22.8612457 31.1877075 25.1208313"></polygon>
        <polygon id="Path" fill="#2DD682" fill-rule="nonzero" points="25.0818085 22.9559204 25.0818085 40.103656 29.3186859 40.103656 29.3186859 26.1177582 28.6174012 26.4917603"></polygon>
        <path d="M11.0002472,27.6421936 L11.0002472,39.1690216 C11.0002472,39.6851593 11.4187439,40.103656 11.9348816,40.103656 L17.1063934,40.103656 L17.1063934,24.3876587 L11.5638458,26.784436 C11.2217316,26.932257 11.0002472,27.2694275 11.0002472,27.6421936 L11.0002472,27.6421936 Z" id="Path" fill="#2DD682" fill-rule="nonzero"></path>
        <path d="M42.946402,19.3639679 C42.6648498,19.1951355 42.3153198,19.1862365 42.0256104,19.3407318 L37.294101,21.8643188 L37.294101,40.103656 L42.4653656,40.103656 C42.9817505,40.103656 43.4,39.6851593 43.4,39.1690216 L43.4,20.1653656 C43.4,19.8370941 43.2277069,19.5328003 42.946402,19.3639679 Z" id="Path" fill="#2DD682" fill-rule="nonzero"></path>
        <g id="Mask" transform="translate(37.000000, 19.000000)"></g>
    </g>
</svg>