<?xml version="1.0" encoding="UTF-8"?>
<svg width="54px" height="54px" viewBox="0 0 54 54" version="1.1" xmlns="http://www.w3.org/2000/svg" xmlns:xlink="http://www.w3.org/1999/xlink">
    <title>heart</title>
    <g id="heart" stroke="none" stroke-width="1" fill="none" fill-rule="evenodd">
        <g id="Mask" transform="translate(11.000000, 13.000000)" fill="#2DD682" fill-rule="nonzero">
            <path d="M15.770192,27.728705 C13.2948604,27.728705 9.24839258,24.5964139 6.33607977,21.4921479 C4.46885574,19.501882 0.126012266,14.3452532 0.126012266,9.45975824 C0.126012266,4.54220711 4.12679527,0.541520078 9.04434641,0.541520078 C10.7479304,0.541520078 12.4044859,1.02389828 13.8350165,1.93653941 C14.5604074,2.3993384 15.2111285,2.96108922 15.770192,3.60278852 C16.3292554,2.96099324 16.9799765,2.39924242 17.7053674,1.93653941 C19.135898,1.02389828 20.7924535,0.541520078 22.4960375,0.541520078 C27.4135886,0.541520078 31.4143716,4.54230309 31.4143716,9.45975824 C31.4143716,14.5852906 27.51446,19.3879578 25.1899077,21.7946661 C22.3368124,24.7484407 18.3176979,27.728705 15.770192,27.728705 L15.770192,27.728705 Z" id="Path"></path>
            <path d="M22.4961335,0.541520078 C20.7925495,0.541520078 19.135994,1.02389828 17.7054634,1.93653941 C16.9800725,2.3993384 16.3293514,2.96108922 15.7702879,3.60278852 L15.7702879,27.728705 C18.3177938,27.728705 22.3369084,24.7483448 25.1900036,21.7946661 C27.514652,19.3880537 31.4144676,14.5853866 31.4144676,9.45975824 C31.4144676,4.54230309 27.4136846,0.541520078 22.4961335,0.541520078 Z" id="Path"></path>
        </g>
    </g>
</svg>