<?xml version="1.0" encoding="UTF-8"?>
<svg width="54px" height="54px" viewBox="0 0 54 54" version="1.1" xmlns="http://www.w3.org/2000/svg" xmlns:xlink="http://www.w3.org/1999/xlink">
    <title>runner</title>
    <g id="runner" stroke="none" stroke-width="1" fill="none" fill-rule="evenodd">
        <g id="Mask" transform="translate(10.152000, 11.151000)" fill="#2DD682" fill-rule="nonzero">
            <path d="M7.9633125,2.99446875 L2.9615625,2.99446875 C2.41591106,2.99446875 1.974375,3.43600481 1.974375,3.98165625 C1.974375,4.52730769 2.41591106,4.96884375 2.9615625,4.96884375 L7.9633125,4.96884375 C8.50896394,4.96884375 8.9505,4.52730769 8.9505,3.98165625 C8.9505,3.43600481 8.50896394,2.99446875 7.9633125,2.99446875 Z" id="Path" opacity="0.553162"></path>
            <path d="M7.9633125,10.8919688 L2.9615625,10.8919688 C2.41591106,10.8919688 1.974375,11.3335048 1.974375,11.8791562 C1.974375,12.4248077 2.41591106,12.8663438 2.9615625,12.8663438 L7.9633125,12.8663438 C8.50896394,12.8663438 8.9505,12.4248077 8.9505,11.8791562 C8.9505,11.3335048 8.50896394,10.8919688 7.9633125,10.8919688 Z" id="Path" opacity="0.553162"></path>
            <path d="M5.9889375,6.94321875 L0.9871875,6.94321875 C0.441536063,6.94321875 0,7.38475481 0,7.93040625 C0,8.47605769 0.441536063,8.91759375 0.9871875,8.91759375 L5.9889375,8.91759375 C6.53458894,8.91759375 6.976125,8.47605769 6.976125,7.93040625 C6.976125,7.38475481 6.53458894,6.94321875 5.9889375,6.94321875 Z" id="Path" opacity="0.553162"></path>
            <path d="M31.721625,11.8791563 L25.7326875,11.8791563 L25.7326875,7.93040625 C25.7326875,6.19651013 23.6116164,5.28355913 22.3617713,6.53504963 L14.4648636,14.4319573 C13.6936069,15.203214 13.6936069,16.4525985 14.4648636,17.2238552 L18.9920396,21.7510313 L13.4776761,27.2653948 C12.7064194,28.0366515 12.7064194,29.286036 13.4776761,30.0572927 C14.2488669,30.8284836 15.4983172,30.8285494 16.2695739,30.0572927 L23.1798864,23.1469802 C23.9511431,22.3757235 23.9511431,21.126339 23.1798864,20.3550823 L18.6527104,15.8279063 L21.7839375,12.6966791 L21.7839375,13.8535313 C21.7839375,14.9438469 22.6679968,15.8279063 23.7583125,15.8279063 L31.721625,15.8279063 C32.8119407,15.8279063 33.696,14.9438469 33.696,13.8535313 C33.696,12.7632156 32.8119407,11.8791563 31.721625,11.8791563 Z" id="Path"></path>
            <path d="M18.4367138,1.8453825 C17.6519655,1.32381844 16.6108117,1.42701244 15.945579,2.09217938 L10.5160478,7.52171062 C9.74479106,8.29296731 9.74479106,9.54235181 10.5160478,10.3136085 C11.2873044,11.0848652 12.5367548,11.0847994 13.3080114,10.3135427 L17.5931949,6.02835919 L19.0367263,7.06819669 L20.9654274,5.13949556 C21.2880403,4.81688269 21.6685682,4.56646613 22.0847006,4.37093719 L18.4367138,1.8453825 Z" id="Path"></path>
            <path d="M13.0689146,18.6198041 C12.5686738,18.1195633 12.2347412,17.5038874 12.0586928,16.8381281 L1.63142606,27.2653948 C0.860169375,28.0366515 0.860169375,29.286036 1.63142606,30.0572927 C2.40261694,30.8284836 3.65206725,30.8285494 4.42332394,30.0572927 L14.4648636,20.0157531 L13.0689146,18.6198041 Z" id="Path"></path>
            <circle id="Oval" cx="26.719875" cy="2.99446875" r="2.9615625"></circle>
        </g>
    </g>
</svg>